<svg width="31" height="31" viewBox="0 0 31 31" fill="none" xmlns="http://www.w3.org/2000/svg">
<g clip-path="url(#clip0)">
<path d="M12.4467 3.022C12.2491 2.96623 12.0437 3.0812 11.988 3.2788C11.9322 3.47641 12.0471 3.68181 12.2448 3.73759C13.279 4.02953 14.2157 4.22214 15.1294 4.65202C15.9871 5.05556 16.6748 5.68326 17.1591 6.49919C17.5727 7.19602 17.9423 7.93076 18.1525 8.68077C18.2087 8.88152 18.1897 9.20018 18.3477 9.33787C18.4818 9.45487 18.6612 9.53046 18.8322 9.44381C18.9683 9.37486 19.0499 9.22548 19.0358 9.07366L19.0357 9.07311C19.0169 8.87004 18.9233 8.67594 18.8685 8.48016C18.633 7.6398 18.2266 6.84087 17.7985 6.11966C17.239 5.17708 16.4394 4.44662 15.4459 3.97922C14.4585 3.51466 13.4163 3.29568 12.4467 3.022Z" fill="#F5F500"/>
<path d="M24.81 6.97113C26.1337 6.85792 27.8883 7.62799 28.8423 8.55676C30.2011 9.8797 30.3371 12.2077 29.6074 13.9573C28.5178 16.5702 25.1887 18.8322 22.7447 20.2451L22.7438 20.2456C21.6527 20.8764 20.6805 21.6589 19.6241 22.3362C18.663 22.9525 17.639 23.4524 16.6707 24.0521C16.1041 24.403 15.1233 24.7653 14.8599 24.8865C14.5965 25.0077 14.4057 25.2734 14.5965 25.5019C14.7325 25.6648 14.9466 25.6599 15.1253 25.5828C15.749 25.3137 16.4878 25.0399 17.0622 24.6842C18.0337 24.0826 19.0611 23.5805 20.0255 22.9622C21.0701 22.2923 22.0302 21.5168 23.1091 20.8933C25.6886 19.4027 29.1444 16.9995 30.2937 14.2435C31.1389 12.2167 30.9345 9.55601 29.3609 8.024C28.2524 6.94476 26.2838 6.09883 24.7467 6.23028C24.5421 6.24778 24.3904 6.4278 24.4079 6.63238C24.4254 6.83696 24.6054 6.98862 24.81 6.97113Z" fill="#F5F500"/>
<path d="M11.6039 3.2305C14.5184 3.74053 16.8864 6.69145 17.7061 8.10315C18.966 7.17719 22.005 5.39814 24.0816 5.68959C26.6773 6.0539 28.5444 7.55668 29.0908 9.74255C29.6373 11.9284 30.0471 14.8884 25.9486 17.894C22.6699 20.2984 17.1141 23.5712 14.7461 24.907L10.3744 19.6245L8.68943 22.3113C8.27958 22.1898 6.98628 21.7466 5.09186 20.9451C2.72384 19.9432 1.35768 18.9869 0.765677 17.894C0.173672 16.8011 0.26475 14.8884 1.67645 13.8866C2.80582 13.0851 4.84899 13.6437 5.77495 14.0687L6.1848 13.2035C6.04818 12.9606 5.70208 12.3109 5.41063 11.6552C5.04632 10.8355 4.49986 9.42378 5.09186 7.14684C5.68387 4.86989 7.96081 2.59295 11.6039 3.2305Z" fill="white"/>
<path fill-rule="evenodd" clip-rule="evenodd" d="M8.31606 3.81836C7.5836 4.31191 6.73581 4.80946 6.17687 5.49364C4.65905 7.3524 4.66526 9.79216 5.59262 12.1106C5.89419 12.6563 6.17214 13.2571 6.17214 13.2571C6.17214 13.2571 6.69286 12.2983 7.05297 11.9347C7.33041 11.6152 7.64187 11.3819 7.64187 11.3819C7.47274 11.0945 6.95258 10.2729 6.80098 9.76604C6.45445 8.60742 6.30895 7.53882 6.80158 6.3734C7.17801 5.60285 7.78927 4.91413 8.40614 4.32634C8.80547 3.94586 9.28126 3.59481 9.28126 3.59481C9.28126 3.59481 8.62832 3.60792 8.31606 3.81836ZM1.99486 13.4629C0.497459 13.7985 -0.146969 16.2573 0.508478 17.4856C0.864861 18.1534 1.31052 18.7414 1.9639 19.1679C2.41565 19.4628 2.87841 19.71 3.36576 19.9436C4.28823 20.386 5.24176 20.644 6.17214 21.0788C7.00045 21.4659 7.81087 21.8076 8.64372 22.2202L9.60004 21.1273C9.60004 21.1273 9.14465 20.854 8.86931 20.6906C8.35301 20.3841 7.77627 20.1756 7.23183 19.9234C6.11399 19.4054 5.04695 18.7857 3.93026 18.2741C2.92264 17.8125 1.56649 16.166 1.8129 14.934C1.89233 14.5368 2.09771 14.3046 2.40491 14.1143C2.68971 13.8492 3.63445 13.7044 3.63445 13.7044C3.1375 13.6487 2.46677 13.3571 1.99486 13.4629ZM10.9938 17.814C10.8734 18.1397 10.7582 18.8042 10.5143 19.0482C10.4018 19.1607 10.3898 19.1988 10.4157 19.361C10.4907 19.83 10.9135 20.327 11.228 20.6786C11.9927 21.534 12.785 22.3835 13.5153 23.2683C13.663 23.4472 14.8775 24.8286 14.8775 24.8286C14.8775 24.8286 15.8693 24.2776 16.3398 23.9507C16.3398 23.9507 15.9233 23.3562 15.5806 22.9455C14.8074 22.0187 14.0605 21.067 13.3133 20.119C12.7404 19.3918 12.1545 18.6655 11.5125 17.9976C11.2162 17.6895 11.0603 17.6343 10.9938 17.814Z" fill="black"/>
<path fill-rule="evenodd" clip-rule="evenodd" d="M8.24382 3.30324C6.84195 3.8595 5.79738 4.79509 5.14618 6.07783C4.73601 6.88573 4.58673 7.34121 4.50476 8.03486C4.39629 8.95271 4.47507 9.86431 4.70112 10.7672C4.84585 11.3451 5.11853 12.0354 5.46413 12.6985C5.64914 13.0535 5.64418 13.1164 5.62041 13.2572C5.57241 13.5413 5.5587 13.5463 5.18442 13.4162C4.11405 13.0441 2.73608 12.8741 1.6702 13.4082C0.710285 13.8891 0.210588 14.6438 0.0578964 15.843C-0.0621439 16.7861 -0.00890901 17.166 0.3447 17.888C0.800953 18.8196 1.25789 19.2662 2.56267 20.0558C4.21129 21.0536 6.00191 21.6368 7.75582 22.4022C8.62707 22.7823 8.76874 22.7983 9.00377 22.5437C9.16534 22.3686 9.45273 21.9109 9.73599 21.3777C10.0531 20.7807 10.3531 20.2621 10.3812 20.262C10.3975 20.262 10.4532 20.3338 10.505 20.4216C11.4413 22.0087 12.8616 23.6026 14.1996 24.8936C14.3795 25.0673 14.616 25.1577 14.8673 25.124C15.2353 25.0747 15.7643 24.8329 16.5448 24.3571C17.4619 23.7979 18.3814 23.2431 19.288 22.6672C20.5398 21.872 21.7899 21.0716 23.0517 20.2924C24.3792 19.4713 25.6996 18.548 26.9277 17.5808C28.0457 16.7003 28.9966 15.6292 29.4342 14.2509C29.8652 12.8927 29.8986 11.3713 29.5445 9.98647C29.1561 8.4673 28.2583 7.18998 26.9146 6.24509C25.9743 5.58394 24.6152 5.23823 23.4847 5.23518C21.9296 5.23088 20.1174 5.8258 18.8853 6.76018C18.7251 6.88173 18.4276 7.12085 18.2241 7.29167C18.0207 7.46248 17.8115 7.60224 17.8115 7.60224C17.3218 7.10768 16.9806 6.48647 16.4965 5.92341C15.204 4.41972 14.1438 3.63554 12.6985 3.11421C11.2524 2.59256 9.65066 2.74509 8.24382 3.30324ZM13.7358 4.91522C14.2103 5.23318 14.9256 5.90096 15.5388 6.59852C15.7927 6.88743 16.6023 7.97278 16.9446 8.49781C16.9437 8.51766 16.9446 8.63297 16.8396 8.69517C16.4523 9.10903 16.4071 9.18604 16.4505 9.35876C16.4734 9.44989 16.5067 9.46933 16.6402 9.46933C16.9178 9.46933 17.3274 9.24603 17.5224 9.06941C18.4222 8.25447 19.3878 7.45306 20.498 6.97553C21.5855 6.50767 22.6049 6.19503 23.8041 6.3143C24.6489 6.39837 25.3794 6.68062 26.1184 7.08573C28.0415 8.14169 28.7021 10.2083 28.6531 12.2653C28.5699 15.7598 25.432 17.532 22.8064 19.2082C22.0595 19.6851 21.323 20.1784 20.5606 20.6308C18.8829 21.6266 17.0917 22.6323 15.4442 23.6416C14.8849 23.9843 14.915 23.9851 14.5639 23.6163C14.0678 23.0954 13.8407 22.8589 13.4449 22.4041C12.6945 21.5416 11.1306 19.4286 11.1306 19.4286C11.1306 19.4286 12.5804 16.8656 12.8939 15.351C13.0279 14.7031 13.1554 13.7975 13.0041 13.147C12.7796 12.1819 12.024 11.3154 11.0204 10.8327C9.91887 10.3028 8.3567 10.3923 7.38367 10.9429C6.92022 11.2051 6.65357 11.6644 6.39184 12.0449C6.10329 11.5803 5.90681 11.1502 5.84082 10.9429C5.21869 8.98951 5.35928 7.06415 6.84587 5.5141C7.70348 4.6199 8.43819 4.05987 9.67101 3.91647C11.1333 3.74642 12.5063 4.09148 13.7358 4.91522ZM9.99897 11.5342C10.7248 11.7195 11.3215 12.2877 11.6181 12.7836C11.7774 13.05 11.9226 13.6566 11.9226 14.0559C11.9226 14.627 11.7371 15.4067 11.4207 16.1647C11.3426 16.3519 11.2617 16.5563 11.241 16.6189C11.1243 16.9705 10.5008 18.2298 9.92201 19.2829C9.8119 19.4833 9.62874 19.8214 9.51503 20.0343C8.74228 21.4807 8.58436 21.7599 8.52607 21.7825C8.2404 21.8937 7.22202 21.2948 6.91335 21.1793C5.02755 20.4732 3.67828 19.8153 2.43989 18.9979C1.70913 18.5155 1.37584 18.1398 1.02359 17.4011C0.81122 16.2891 0.744527 15.1516 1.87347 14.4694C2.8657 13.8698 4.12743 14.1789 5.16488 14.4832C5.8267 14.6774 6.05754 14.8187 6.18723 14.6538C6.23914 14.5878 6.28163 14.5048 6.28163 14.4694C6.28163 14.3854 6.70679 13.0949 6.91335 12.7836C7.11628 12.4779 7.73223 11.8864 7.99094 11.7488C8.54332 11.4549 9.35096 11.3686 9.99897 11.5342ZM7.75582 26.367C7.45527 26.39 6.96345 26.4394 6.66289 26.4767C6.36233 26.514 5.90125 26.5656 5.63827 26.5915C4.7989 26.674 4.64238 26.7538 4.70153 27.069C4.72767 27.2084 4.72011 27.2195 4.58072 27.2475C4.49889 27.2638 4.09095 27.3072 3.67418 27.3438C3.25736 27.3805 2.88636 27.422 2.84974 27.436C2.81313 27.4501 2.43001 27.4987 1.9984 27.5441C1.33594 27.6136 1.1991 27.641 1.12054 27.7196C0.988664 27.8514 1.00101 28.0441 1.14955 28.1718C1.26923 28.2748 1.29168 28.2769 2.3051 28.277C2.87543 28.2771 3.64467 28.3072 4.02164 28.3443C4.52493 28.3938 5.54869 28.4165 7.91097 28.4305C11.1024 28.4495 11.1195 28.449 11.6267 28.3461C11.907 28.2892 12.1909 28.2068 12.2577 28.1631C12.404 28.0672 12.4547 27.8967 12.3889 27.7224C12.3416 27.5971 12.3444 27.5938 12.494 27.5938C12.5785 27.5938 12.8483 27.6146 13.0935 27.64C13.3387 27.6654 14.0516 27.7172 14.6777 27.7552C15.3039 27.7931 16.0826 27.8442 16.4082 27.8688C16.7338 27.8933 18.0658 27.9332 19.3682 27.9573C20.6706 27.9814 21.9514 28.0233 22.2144 28.0503C23.2534 28.157 27.4311 28.0936 27.967 27.9631C28.4483 27.8458 28.4258 27.4689 27.9278 27.3058C27.8023 27.2648 27.3885 27.2102 26.9973 27.1831C26.6098 27.1562 26.1999 27.1133 26.0865 27.0876C25.9731 27.0619 25.5626 26.9999 25.1744 26.9497C23.5584 26.741 23.1309 26.6851 22.8064 26.6402C22.6186 26.6142 21.6759 26.5717 20.7116 26.5459C19.7473 26.5201 18.7637 26.4775 18.5258 26.4514C18.2801 26.4245 16.6858 26.3982 14.8371 26.3906C13.0463 26.3833 10.8434 26.3655 9.94169 26.3512C9.04002 26.3368 8.05638 26.3439 7.75582 26.367Z" fill="#323239"/>
</g>
<defs>
<clipPath id="clip0">
<rect width="30.8571" height="30.8571" fill="white" transform="translate(0 0.14286)"/>
</clipPath>
</defs>
</svg>
